<?xml version="1.0" encoding="UTF-8"?>
<!DOCTYPE svg PUBLIC "-//W3C//DTD SVG 1.1//EN" "http://www.w3.org/Graphics/SVG/1.1/DTD/svg11.dtd">
<svg xmlns="http://www.w3.org/2000/svg" version="1.1" width="500px" height="499px" style="shape-rendering:geometricPrecision; text-rendering:geometricPrecision; image-rendering:optimizeQuality; fill-rule:evenodd; clip-rule:evenodd" xmlns:xlink="http://www.w3.org/1999/xlink">
<g><path style="opacity:0.004" fill="#fefffe" d="M 208.5,1.5 C 209.833,2.16667 209.833,2.16667 208.5,1.5 Z"/></g>
<g><path style="opacity:0.004" fill="#fefffe" d="M 172.5,6.5 C 173.833,7.16667 173.833,7.16667 172.5,6.5 Z"/></g>
<g><path style="opacity:0.004" fill="#fefffe" d="M 159.5,12.5 C 160.833,13.1667 160.833,13.1667 159.5,12.5 Z"/></g>
<g><path style="opacity:0.004" fill="#fefffe" d="M 469.5,20.5 C 470.833,21.1667 470.833,21.1667 469.5,20.5 Z"/></g>
<g><path style="opacity:0.992" fill="#0b0b0b" d="M 249.5,23.5 C 276.946,23.4542 293.446,36.7875 299,63.5C 300.118,83.7698 291.951,98.9365 274.5,109C 250.289,118.482 230.789,112.649 216,91.5C 204.599,67.7207 209.099,47.5541 229.5,31C 235.885,27.3765 242.552,24.8765 249.5,23.5 Z M 260.5,83.5 C 256.484,84.7425 252.484,84.7425 248.5,83.5C 239.896,79.0412 237.062,72.0412 240,62.5C 245.308,53.6413 252.808,51.1413 262.5,55C 273.572,65.432 272.906,74.932 260.5,83.5 Z"/></g>
<g><path style="opacity:0.004" fill="#fefffe" d="M 154.5,35.5 C 155.833,36.1667 155.833,36.1667 154.5,35.5 Z"/></g>
<g><path style="opacity:0.004" fill="#fefffe" d="M 356.5,36.5 C 357.833,37.1667 357.833,37.1667 356.5,36.5 Z"/></g>
<g><path style="opacity:0.004" fill="#fefffe" d="M 138.5,41.5 C 139.833,42.1667 139.833,42.1667 138.5,41.5 Z"/></g>
<g><path style="opacity:0.004" fill="#fefffe" d="M 484.5,51.5 C 485.833,52.1667 485.833,52.1667 484.5,51.5 Z"/></g>
<g><path style="opacity:0.004" fill="#fefffe" d="M 353.5,61.5 C 354.833,62.1667 354.833,62.1667 353.5,61.5 Z"/></g>
<g><path style="opacity:0.004" fill="#fefffe" d="M 62.5,65.5 C 63.8333,66.1667 63.8333,66.1667 62.5,65.5 Z"/></g>
<g><path style="opacity:0.004" fill="#fefffe" d="M 187.5,67.5 C 188.833,68.1667 188.833,68.1667 187.5,67.5 Z"/></g>
<g><path style="opacity:0.004" fill="#fefffe" d="M 317.5,68.5 C 318.833,69.1667 318.833,69.1667 317.5,68.5 Z"/></g>
<g><path style="opacity:0.004" fill="#fefffe" d="M 5.5,73.5 C 6.83333,74.1667 6.83333,74.1667 5.5,73.5 Z"/></g>
<g><path style="opacity:0.004" fill="#fefffe" d="M 482.5,76.5 C 483.833,77.1667 483.833,77.1667 482.5,76.5 Z"/></g>
<g><path style="opacity:0.004" fill="#fefffe" d="M 10.5,77.5 C 11.8333,78.1667 11.8333,78.1667 10.5,77.5 Z"/></g>
<g><path style="opacity:0.137" fill="#4b514a" d="M 248.5,83.5 C 252.484,84.7425 256.484,84.7425 260.5,83.5C 258.952,84.7943 256.952,85.4609 254.5,85.5C 252.048,85.4609 250.048,84.7943 248.5,83.5 Z"/></g>
<g><path style="opacity:0.004" fill="#fefffe" d="M 170.5,87.5 C 171.833,88.1667 171.833,88.1667 170.5,87.5 Z"/></g>
<g><path style="opacity:0.004" fill="#fefffe" d="M 82.5,91.5 C 83.8333,92.1667 83.8333,92.1667 82.5,91.5 Z"/></g>
<g><path style="opacity:0.004" fill="#fefffe" d="M 307.5,99.5 C 308.833,100.167 308.833,100.167 307.5,99.5 Z"/></g>
<g><path style="opacity:0.004" fill="#fefffe" d="M 9.5,101.5 C 10.8333,102.167 10.8333,102.167 9.5,101.5 Z"/></g>
<g><path style="opacity:0.004" fill="#fefffe" d="M 339.5,123.5 C 340.833,124.167 340.833,124.167 339.5,123.5 Z"/></g>
<g><path style="opacity:0.996" fill="#060605" d="M 430.5,168.5 C 403.498,168.333 376.498,168.5 349.5,169C 346.305,169.181 343.305,169.681 340.5,170.5C 310.572,175.697 282.572,186.03 256.5,201.5C 256.5,190.833 256.5,180.167 256.5,169.5C 196.167,169.5 135.833,169.5 75.5,169.5C 75.1667,169.5 74.8333,169.5 74.5,169.5C 73.5719,156.845 73.4052,144.178 74,131.5C 74.2949,129.069 75.4616,127.236 77.5,126C 195.167,125.333 312.833,125.333 430.5,126C 432.333,126.5 433.5,127.667 434,129.5C 434.667,141.5 434.667,153.5 434,165.5C 433.578,167.426 432.411,168.426 430.5,168.5 Z"/></g>
<g><path style="opacity:0.004" fill="#fefffe" d="M 459.5,154.5 C 460.833,155.167 460.833,155.167 459.5,154.5 Z"/></g>
<g><path style="opacity:0.004" fill="#fefffe" d="M 58.5,168.5 C 59.8333,169.167 59.8333,169.167 58.5,168.5 Z"/></g>
<g><path style="opacity:1" fill="#304c3c" d="M 75.5,169.5 C 135.833,169.5 196.167,169.5 256.5,169.5C 256.5,180.167 256.5,190.833 256.5,201.5C 255.506,191.347 255.172,181.014 255.5,170.5C 195.451,169.839 135.618,170.506 76,172.5C 75.5172,171.552 75.3505,170.552 75.5,169.5 Z"/></g>
<g><path style="opacity:0.055" fill="#899389" d="M 430.5,168.5 C 400.66,169.25 370.66,169.916 340.5,170.5C 343.305,169.681 346.305,169.181 349.5,169C 376.498,168.5 403.498,168.333 430.5,168.5 Z"/></g>
<g><path style="opacity:1" fill="#2a5d43" d="M 74.5,169.5 C 74.8333,169.5 75.1667,169.5 75.5,169.5C 75.3505,170.552 75.5172,171.552 76,172.5C 135.618,170.506 195.451,169.839 255.5,170.5C 255.172,181.014 255.506,191.347 256.5,201.5C 249.045,207.067 241.379,212.401 233.5,217.5C 233.666,211.824 233.499,206.157 233,200.5C 231.795,199.929 230.628,199.262 229.5,198.5C 216.006,197.175 202.673,197.175 189.5,198.5C 189.167,198.5 188.833,198.5 188.5,198.5C 157.45,198.97 126.45,198.47 95.5,197C 83.0581,192.05 76.0581,182.884 74.5,169.5 Z"/></g>
<g><path style="opacity:0.004" fill="#fefffe" d="M 327.5,191.5 C 328.833,192.167 328.833,192.167 327.5,191.5 Z"/></g>
<g><path style="opacity:0.476" fill="#575e54" d="M 378.5,200.5 C 379.952,199.698 381.618,199.198 383.5,199C 370.735,197.978 358.068,198.645 345.5,201C 346.696,201.654 346.696,202.154 345.5,202.5C 342.579,201.593 339.579,201.26 336.5,201.5C 342.583,199.706 348.916,198.539 355.5,198C 363.216,197.801 370.882,197.301 378.5,196.5C 383.814,197.122 389.147,197.789 394.5,198.5C 389.212,199.562 383.879,200.229 378.5,200.5 Z"/></g>
<g><path style="opacity:0.997" fill="#080908" d="M 233.5,217.5 C 231.249,220.295 228.582,222.628 225.5,224.5C 223.973,224.427 222.973,225.094 222.5,226.5C 211.124,236.376 200.958,247.376 192,259.5C 191.329,260.252 190.496,260.586 189.5,260.5C 189.5,239.833 189.5,219.167 189.5,198.5C 202.673,197.175 216.006,197.175 229.5,198.5C 230.628,199.262 231.795,199.929 233,200.5C 233.499,206.157 233.666,211.824 233.5,217.5 Z"/></g>
<g><path style="opacity:0.997" fill="#080907" d="M 378.5,200.5 C 369.947,202.469 361.281,204.469 352.5,206.5C 350.447,206.402 348.78,207.069 347.5,208.5C 339.299,211.864 332.132,216.864 326,223.5C 324.139,225.888 322.806,228.554 322,231.5C 320.696,286.472 320.03,341.472 320,396.5C 316.76,423.039 302.927,441.372 278.5,451.5C 276.835,382.171 275.835,312.505 275.5,242.5C 274.478,242.855 273.811,243.522 273.5,244.5C 272.167,245.167 271.167,246.167 270.5,247.5C 268.407,248.045 266.407,248.878 264.5,250C 257.856,255.8 252.189,262.3 247.5,269.5C 243.583,272.988 240.917,277.321 239.5,282.5C 237.078,287.165 235.411,292.165 234.5,297.5C 233.501,348.664 233.168,399.997 233.5,451.5C 232.5,451.5 231.5,451.5 230.5,451.5C 227.515,450.674 224.849,449.341 222.5,447.5C 222.027,446.094 221.027,445.427 219.5,445.5C 200.956,434.102 190.79,417.435 189,395.5C 188.333,380.5 188.333,365.5 189,350.5C 189.207,344.693 190.04,339.027 191.5,333.5C 192.924,331.485 193.59,329.152 193.5,326.5C 200.759,300.627 214.093,278.627 233.5,260.5C 235.833,258.833 237.833,256.833 239.5,254.5C 262.88,231.166 290.546,214.832 322.5,205.5C 326.162,205.277 329.495,204.277 332.5,202.5C 333.568,201.566 334.901,201.232 336.5,201.5C 339.579,201.26 342.579,201.593 345.5,202.5C 346.696,202.154 346.696,201.654 345.5,201C 358.068,198.645 370.735,197.978 383.5,199C 381.618,199.198 379.952,199.698 378.5,200.5 Z"/></g>
<g><path style="opacity:0.325" fill="#6a7368" d="M 332.5,202.5 C 329.495,204.277 326.162,205.277 322.5,205.5C 325.505,203.723 328.838,202.723 332.5,202.5 Z"/></g>
<g><path style="opacity:0.004" fill="#fefffe" d="M 410.5,205.5 C 411.833,206.167 411.833,206.167 410.5,205.5 Z"/></g>
<g><path style="opacity:0.004" fill="#fefffe" d="M 161.5,207.5 C 162.833,208.167 162.833,208.167 161.5,207.5 Z"/></g>
<g><path style="opacity:0.09" fill="#90978e" d="M 352.5,206.5 C 351.22,207.931 349.553,208.598 347.5,208.5C 348.78,207.069 350.447,206.402 352.5,206.5 Z"/></g>
<g><path style="opacity:0.106" fill="#b9c0b8" d="M 188.5,198.5 C 188.833,198.5 189.167,198.5 189.5,198.5C 189.5,219.167 189.5,239.833 189.5,260.5C 188.802,257.103 188.135,253.603 187.5,250C 188.492,232.91 188.825,215.744 188.5,198.5 Z"/></g>
<g><path style="opacity:0.016" fill="#9ba2a1" d="M 225.5,224.5 C 225.027,225.906 224.027,226.573 222.5,226.5C 222.973,225.094 223.973,224.427 225.5,224.5 Z"/></g>
<g><path style="opacity:0.004" fill="#fefffe" d="M 448.5,238.5 C 449.833,239.167 449.833,239.167 448.5,238.5 Z"/></g>
<g><path style="opacity:0.004" fill="#fefffe" d="M 456.5,239.5 C 457.833,240.167 457.833,240.167 456.5,239.5 Z"/></g>
<g><path style="opacity:0.004" fill="#fefffe" d="M 48.5,245.5 C 49.8333,246.167 49.8333,246.167 48.5,245.5 Z"/></g>
<g><path style="opacity:1" fill="#6a8f30" d="M 270.5,247.5 C 268.873,249.63 267.04,251.63 265,253.5C 264.506,255.134 264.34,256.801 264.5,258.5C 261.833,258.833 259.167,259.167 256.5,259.5C 256.5,260.5 256.5,261.5 256.5,262.5C 253.271,264.378 250.271,266.712 247.5,269.5C 252.189,262.3 257.856,255.8 264.5,250C 266.407,248.878 268.407,248.045 270.5,247.5 Z"/></g>
<g><path style="opacity:0.184" fill="#a0a29e" d="M 239.5,254.5 C 237.833,256.833 235.833,258.833 233.5,260.5C 234.5,257.5 236.5,255.5 239.5,254.5 Z"/></g>
<g><path style="opacity:0.004" fill="#fefffe" d="M 120.5,261.5 C 121.833,262.167 121.833,262.167 120.5,261.5 Z"/></g>
<g><path style="opacity:0.004" fill="#fefffe" d="M 14.5,265.5 C 15.8333,266.167 15.8333,266.167 14.5,265.5 Z"/></g>
<g><path style="opacity:0.004" fill="#fefffe" d="M 483.5,269.5 C 484.833,270.167 484.833,270.167 483.5,269.5 Z"/></g>
<g><path style="opacity:0.004" fill="#fefffe" d="M 175.5,280.5 C 176.833,281.167 176.833,281.167 175.5,280.5 Z"/></g>
<g><path style="opacity:0.004" fill="#fefffe" d="M 343.5,282.5 C 344.833,283.167 344.833,283.167 343.5,282.5 Z"/></g>
<g><path style="opacity:1" fill="#91d21e" d="M 256.5,453.5 C 256.5,453.833 256.5,454.167 256.5,454.5C 251.156,454.666 245.823,454.499 240.5,454C 239.109,452.98 237.609,452.147 236,451.5C 235.333,400.833 235.333,350.167 236,299.5C 236.21,297.942 236.71,296.609 237.5,295.5C 236.871,321.988 236.537,348.488 236.5,375C 236.342,399.585 236.842,424.085 238,448.5C 240.892,447.606 243.226,445.94 245,443.5C 247.493,444.946 249.327,444.279 250.5,441.5C 251.167,442.5 251.833,443.5 252.5,444.5C 253.086,444.291 253.586,443.957 254,443.5C 254.354,402.126 254.52,360.793 254.5,319.5C 253.5,319.5 252.5,319.5 251.5,319.5C 252.585,314.367 251.919,309.367 249.5,304.5C 249.78,300.953 249.78,297.287 249.5,293.5C 248.5,293.5 247.5,293.5 246.5,293.5C 246.649,292.448 246.483,291.448 246,290.5C 243.314,292.938 240.481,294.271 237.5,294.5C 237.565,291.572 238.232,288.905 239.5,286.5C 243.409,281.693 246.576,276.36 249,270.5C 250.684,268.649 252.517,266.982 254.5,265.5C 255.281,266.729 255.781,268.062 256,269.5C 256.5,330.832 256.667,392.166 256.5,453.5 Z"/></g>
<g><path style="opacity:1" fill="#92d715" d="M 237.5,295.5 C 237.5,295.167 237.5,294.833 237.5,294.5C 240.481,294.271 243.314,292.938 246,290.5C 246.483,291.448 246.649,292.448 246.5,293.5C 247.5,293.5 248.5,293.5 249.5,293.5C 249.78,297.287 249.78,300.953 249.5,304.5C 251.919,309.367 252.585,314.367 251.5,319.5C 252.5,319.5 253.5,319.5 254.5,319.5C 254.52,360.793 254.354,402.126 254,443.5C 253.586,443.957 253.086,444.291 252.5,444.5C 251.833,443.5 251.167,442.5 250.5,441.5C 249.327,444.279 247.493,444.946 245,443.5C 243.226,445.94 240.892,447.606 238,448.5C 236.842,424.085 236.342,399.585 236.5,375C 236.537,348.488 236.871,321.988 237.5,295.5 Z"/></g>
<g><path style="opacity:0.004" fill="#fefffe" d="M 135.5,304.5 C 136.833,305.167 136.833,305.167 135.5,304.5 Z"/></g>
<g><path style="opacity:0.004" fill="#fefffe" d="M 419.5,310.5 C 420.833,311.167 420.833,311.167 419.5,310.5 Z"/></g>
<g><path style="opacity:0.004" fill="#fefffe" d="M 407.5,311.5 C 408.833,312.167 408.833,312.167 407.5,311.5 Z"/></g>
<g><path style="opacity:0.004" fill="#fefffe" d="M 98.5,320.5 C 99.8333,321.167 99.8333,321.167 98.5,320.5 Z"/></g>
<g><path style="opacity:0.004" fill="#fefffe" d="M 87.5,323.5 C 88.8333,324.167 88.8333,324.167 87.5,323.5 Z"/></g>
<g><path style="opacity:0.227" fill="#646762" d="M 193.5,326.5 C 193.59,329.152 192.924,331.485 191.5,333.5C 191.41,330.848 192.076,328.515 193.5,326.5 Z"/></g>
<g><path style="opacity:1" fill="#76b118" d="M 256.5,262.5 C 257.828,326.294 257.828,389.961 256.5,453.5C 256.667,392.166 256.5,330.832 256,269.5C 255.781,268.062 255.281,266.729 254.5,265.5C 252.517,266.982 250.684,268.649 249,270.5C 246.576,276.36 243.409,281.693 239.5,286.5C 239.5,285.167 239.5,283.833 239.5,282.5C 240.917,277.321 243.583,272.988 247.5,269.5C 250.271,266.712 253.271,264.378 256.5,262.5 Z"/></g>
<g><path style="opacity:1" fill="#69873f" d="M 278.5,451.5 C 275.855,453.31 272.855,454.31 269.5,454.5C 270.475,452.487 272.142,451.154 274.5,450.5C 274.833,416.167 275.167,381.833 275.5,347.5C 275.5,312.827 274.833,278.493 273.5,244.5C 273.811,243.522 274.478,242.855 275.5,242.5C 275.835,312.505 276.835,382.171 278.5,451.5 Z"/></g>
<g><path style="opacity:1" fill="#a5d159" d="M 239.5,282.5 C 239.5,283.833 239.5,285.167 239.5,286.5C 238.232,288.905 237.565,291.572 237.5,294.5C 237.5,294.833 237.5,295.167 237.5,295.5C 236.71,296.609 236.21,297.942 236,299.5C 235.333,350.167 235.333,400.833 236,451.5C 237.609,452.147 239.109,452.98 240.5,454C 245.823,454.499 251.156,454.666 256.5,454.5C 258.265,455.461 260.265,455.795 262.5,455.5C 257.35,456.651 252.016,456.817 246.5,456C 241.756,455.885 237.422,454.718 233.5,452.5C 234.499,401.003 234.832,349.336 234.5,297.5C 235.411,292.165 237.078,287.165 239.5,282.5 Z"/></g>
<g><path style="opacity:1" fill="#4b6a1b" d="M 234.5,297.5 C 234.832,349.336 234.499,401.003 233.5,452.5C 232.209,452.737 231.209,452.404 230.5,451.5C 231.5,451.5 232.5,451.5 233.5,451.5C 233.168,399.997 233.501,348.664 234.5,297.5 Z"/></g>
<g><path style="opacity:1" fill="#639714" d="M 273.5,244.5 C 274.833,278.493 275.5,312.827 275.5,347.5C 275.167,381.833 274.833,416.167 274.5,450.5C 272.142,451.154 270.475,452.487 269.5,454.5C 267.283,455.369 264.95,455.702 262.5,455.5C 260.265,455.795 258.265,455.461 256.5,454.5C 256.5,454.167 256.5,453.833 256.5,453.5C 257.828,389.961 257.828,326.294 256.5,262.5C 256.5,261.5 256.5,260.5 256.5,259.5C 259.167,259.167 261.833,258.833 264.5,258.5C 264.34,256.801 264.506,255.134 265,253.5C 267.04,251.63 268.873,249.63 270.5,247.5C 271.167,246.167 272.167,245.167 273.5,244.5 Z"/></g>
<g><path style="opacity:0.004" fill="#fefffe" d="M 429.5,369.5 C 430.833,370.167 430.833,370.167 429.5,369.5 Z"/></g>
<g><path style="opacity:0.004" fill="#fefffe" d="M 485.5,389.5 C 486.833,390.167 486.833,390.167 485.5,389.5 Z"/></g>
<g><path style="opacity:0.004" fill="#fefffe" d="M 474.5,393.5 C 475.833,394.167 475.833,394.167 474.5,393.5 Z"/></g>
<g><path style="opacity:0.004" fill="#fefffe" d="M 159.5,424.5 C 160.833,425.167 160.833,425.167 159.5,424.5 Z"/></g>
<g><path style="opacity:0.004" fill="#fefffe" d="M 193.5,424.5 C 194.833,425.167 194.833,425.167 193.5,424.5 Z"/></g>
<g><path style="opacity:0.004" fill="#fefffe" d="M 172.5,428.5 C 173.833,429.167 173.833,429.167 172.5,428.5 Z"/></g>
<g><path style="opacity:0.004" fill="#fefffe" d="M 485.5,430.5 C 486.833,431.167 486.833,431.167 485.5,430.5 Z"/></g>
<g><path style="opacity:0.004" fill="#fefffe" d="M 84.5,431.5 C 85.8333,432.167 85.8333,432.167 84.5,431.5 Z"/></g>
<g><path style="opacity:0.004" fill="#fefffe" d="M 64.5,441.5 C 65.8333,442.167 65.8333,442.167 64.5,441.5 Z"/></g>
<g><path style="opacity:0.161" fill="#758b75" d="M 219.5,445.5 C 221.027,445.427 222.027,446.094 222.5,447.5C 220.973,447.573 219.973,446.906 219.5,445.5 Z"/></g>
<g><path style="opacity:0.004" fill="#fefffe" d="M 54.5,449.5 C 55.8333,450.167 55.8333,450.167 54.5,449.5 Z"/></g>
<g><path style="opacity:0.004" fill="#fefffe" d="M 434.5,463.5 C 435.833,464.167 435.833,464.167 434.5,463.5 Z"/></g>
<g><path style="opacity:0.004" fill="#fefffe" d="M 342.5,475.5 C 343.833,476.167 343.833,476.167 342.5,475.5 Z"/></g>
<g><path style="opacity:0.004" fill="#fefffe" d="M 125.5,476.5 C 126.833,477.167 126.833,477.167 125.5,476.5 Z"/></g>
<g><path style="opacity:0.004" fill="#fefffe" d="M 376.5,476.5 C 377.833,477.167 377.833,477.167 376.5,476.5 Z"/></g>
<g><path style="opacity:0.004" fill="#fefffe" d="M 24.5,480.5 C 25.8333,481.167 25.8333,481.167 24.5,480.5 Z"/></g>
</svg>
